<svg width="30" height="30" viewBox="0 0 30 30" fill="none" xmlns="http://www.w3.org/2000/svg">
<g clip-path="url(#clip0)">
<g filter="url(#filter0_d)">
<path d="M14.9939 0C8.36498 0 2.96875 5.39623 2.96875 12.0252C2.96875 12.7799 3.03793 13.5409 3.18259 14.283C3.18888 14.327 3.21403 14.4591 3.26435 14.6855C3.44674 15.4969 3.71718 16.2956 4.06938 17.0566C5.36498 20.1069 8.21403 24.7925 14.4656 29.8113C14.6228 29.9371 14.8115 30 15.0002 30C15.1889 30 15.3776 29.9371 15.5348 29.8113C21.7801 24.7925 24.6354 20.1069 25.931 17.0566C26.2832 16.2956 26.5537 15.5031 26.736 14.6855C26.7864 14.4591 26.8115 14.327 26.8178 14.283C26.9562 13.5409 27.0316 12.7799 27.0316 12.0252C27.0191 5.39623 21.6228 0 14.9939 0ZM25.1323 13.9874C25.1323 14 25.126 14.0126 25.126 14.0252C25.1197 14.0566 25.1008 14.1509 25.0694 14.2956C25.0694 14.3019 25.0694 14.3019 25.0694 14.3082C24.9121 15.0126 24.6794 15.6981 24.3713 16.3585C24.365 16.3648 24.365 16.3774 24.3587 16.3836C23.1826 19.1698 20.604 23.4214 14.9939 28.0566C9.38384 23.4214 6.80523 19.1698 5.62913 16.3836C5.62284 16.3774 5.62284 16.3648 5.61655 16.3585C5.31466 15.7044 5.08196 15.0126 4.91843 14.3082C4.91843 14.3019 4.91843 14.3019 4.91843 14.2956C4.8807 14.1509 4.86812 14.0566 4.86183 14.0252C4.86183 14.0126 4.85554 14 4.85554 13.9811C4.72976 13.3333 4.66686 12.6792 4.66686 12.0189C4.66686 6.32704 9.30208 1.69182 14.9939 1.69182C20.6857 1.69182 25.3209 6.32704 25.3209 12.0189C25.3209 12.6855 25.2581 13.3459 25.1323 13.9874Z" fill="black"/>
<path d="M3.67756 14.2123L3.67577 14.1998L3.67335 14.1874C3.53519 13.4785 3.46875 12.7497 3.46875 12.0252C3.46875 5.67237 8.64112 0.5 14.9939 0.5C21.3465 0.5 26.5196 5.67239 26.5316 12.0261C26.5316 12.7476 26.4594 13.4775 26.3263 14.1914L26.3243 14.2018L26.3228 14.2123C26.3228 14.2123 26.3227 14.2129 26.3225 14.2145L26.3214 14.2209L26.3175 14.243C26.3142 14.2617 26.3094 14.2865 26.3031 14.3178C26.2906 14.3804 26.2725 14.4664 26.248 14.5767C26.0736 15.3586 25.8148 16.1172 25.4772 16.8466L25.4739 16.8538L25.4708 16.8611C24.208 19.8342 21.4038 24.4533 15.2219 29.4213C15.1549 29.4747 15.077 29.5 15.0002 29.5C14.9232 29.5 14.8451 29.4746 14.778 29.4209L14.4657 29.8112L14.7786 29.4214C8.59058 24.4536 5.79251 19.8345 4.52959 16.8611L4.52648 16.8538L4.52314 16.8466C4.18596 16.118 3.92696 15.3532 3.75231 14.5765C3.72782 14.4663 3.70976 14.3804 3.69725 14.3178C3.69098 14.2865 3.68624 14.2617 3.68284 14.243L3.67894 14.2209L3.6779 14.2145C3.67777 14.2137 3.67768 14.2131 3.67763 14.2128L3.67756 14.2123ZM25.6163 14.1232L25.626 14.0747V14.0699C25.6263 14.0675 25.6267 14.065 25.6271 14.0624C25.7565 13.395 25.8209 12.7096 25.8209 12.0189C25.8209 6.0509 20.9619 1.19182 14.9939 1.19182C9.02594 1.19182 4.16686 6.0509 4.16686 12.0189C4.16686 12.7023 4.23113 13.3795 4.35964 14.0501C4.36033 14.056 4.36107 14.0616 4.36183 14.0669V14.0747L4.37154 14.1232C4.37126 14.1218 4.38694 14.2244 4.41843 14.3568V14.3655L4.43139 14.4212C4.60215 15.1568 4.84557 15.8812 5.16257 16.568L5.1668 16.5772C5.16788 16.5797 5.16902 16.5822 5.17021 16.5849C5.17206 16.5889 5.17413 16.5933 5.17642 16.598L5.18247 16.6111C6.3971 19.4739 9.02701 23.7751 14.6754 28.4421L14.9939 28.7052L15.3124 28.4421C20.9641 23.7724 23.5938 19.4688 24.8075 16.6061L24.8088 16.6033C24.8121 16.5966 24.8151 16.5904 24.8176 16.5849C24.819 16.5818 24.8203 16.5788 24.8216 16.5759L24.8244 16.5699C25.1479 15.8766 25.3923 15.1567 25.5574 14.4171L25.5694 14.3633V14.349C25.5948 14.2303 25.6105 14.1521 25.6163 14.1232ZM5.1485 16.5292L5.1489 16.5304L5.1485 16.5292Z" stroke="black"/>
</g>
<g filter="url(#filter1_d)">
<path d="M14.9941 4.52197C10.7866 4.52197 7.35889 7.94965 7.35889 12.1572C7.35889 16.3647 10.7866 19.7924 14.9941 19.7924C19.2016 19.7924 22.6293 16.3647 22.6293 12.1572C22.6293 7.94965 19.2016 4.52197 14.9941 4.52197ZM14.9941 18.0943C11.7174 18.0943 9.057 15.4276 9.057 12.1572C9.057 8.88675 11.7237 6.22009 14.9941 6.22009C18.2645 6.22009 20.9312 8.88675 20.9312 12.1572C20.9312 15.4276 18.2708 18.0943 14.9941 18.0943Z" fill="black"/>
<path d="M7.85889 12.1572C7.85889 8.22579 11.0627 5.02197 14.9941 5.02197C18.9255 5.02197 22.1293 8.22579 22.1293 12.1572C22.1293 16.0886 18.9255 19.2924 14.9941 19.2924C11.0627 19.2924 7.85889 16.0886 7.85889 12.1572ZM8.557 12.1572C8.557 15.7034 11.4409 18.5943 14.9941 18.5943C18.5473 18.5943 21.4312 15.7034 21.4312 12.1572C21.4312 8.61061 18.5407 5.72009 14.9941 5.72009C11.4475 5.72009 8.557 8.61061 8.557 12.1572Z" stroke="black"/>
</g>
</g>
<defs>
<filter id="filter0_d" x="-1.03125" y="0" width="32.0629" height="38" filterUnits="userSpaceOnUse" color-interpolation-filters="sRGB">
<feFlood flood-opacity="0" result="BackgroundImageFix"/>
<feColorMatrix in="SourceAlpha" type="matrix" values="0 0 0 0 0 0 0 0 0 0 0 0 0 0 0 0 0 0 127 0"/>
<feOffset dy="4"/>
<feGaussianBlur stdDeviation="2"/>
<feColorMatrix type="matrix" values="0 0 0 0 0 0 0 0 0 0 0 0 0 0 0 0 0 0 0.25 0"/>
<feBlend mode="normal" in2="BackgroundImageFix" result="effect1_dropShadow"/>
<feBlend mode="normal" in="SourceGraphic" in2="effect1_dropShadow" result="shape"/>
</filter>
<filter id="filter1_d" x="3.35889" y="4.52197" width="23.2704" height="23.2704" filterUnits="userSpaceOnUse" color-interpolation-filters="sRGB">
<feFlood flood-opacity="0" result="BackgroundImageFix"/>
<feColorMatrix in="SourceAlpha" type="matrix" values="0 0 0 0 0 0 0 0 0 0 0 0 0 0 0 0 0 0 127 0"/>
<feOffset dy="4"/>
<feGaussianBlur stdDeviation="2"/>
<feColorMatrix type="matrix" values="0 0 0 0 0 0 0 0 0 0 0 0 0 0 0 0 0 0 0.25 0"/>
<feBlend mode="normal" in2="BackgroundImageFix" result="effect1_dropShadow"/>
<feBlend mode="normal" in="SourceGraphic" in2="effect1_dropShadow" result="shape"/>
</filter>
<clipPath id="clip0">
<rect width="30" height="30" fill="white"/>
</clipPath>
</defs>
</svg>
