<svg width="14" height="12" viewBox="0 0 14 12" fill="none" xmlns="http://www.w3.org/2000/svg">
<path d="M6.24571 11.1043C5.67754 11.1043 5.07148 11.1043 4.46543 11.1043C3.85938 11.1043 3.25333 11.1043 2.64728 11.1043V10.3631C3.25333 10.3631 3.85938 10.3631 4.46543 10.3631C5.79117 10.3631 7.07905 10.4002 8.36691 10.3261C10.7911 10.1779 12.7229 8.17681 12.7608 5.69402C12.8365 3.13711 10.9047 0.950759 8.5184 0.802532C6.77601 0.691362 5.03361 0.728416 3.21545 0.765473C2.49577 0.765473 1.77608 0.802532 1.05639 0.802532V8.955H0.298828V0.0613989H0.67761C1.54881 0.0613989 2.38213 0.0613966 3.21545 0.02434C5.07149 -0.0127167 6.81389 -0.0127144 8.59416 0.0613989C11.3972 0.209626 13.5941 2.76654 13.5562 5.69402C13.4804 8.54738 11.2456 10.8819 8.44264 11.0302C7.68508 11.1043 6.9654 11.1043 6.24571 11.1043ZM6.24571 9.36262C5.86693 9.36262 5.45027 9.36262 4.99574 9.36262C4.84422 9.36262 4.54121 9.36262 4.2003 9.36262C3.59425 9.36262 2.91244 9.36262 2.60941 9.36262L2.2685 9.32556V1.69189H2.64728C3.25333 1.69189 3.82152 1.69189 4.38969 1.69189C5.67755 1.69189 6.92753 1.65484 8.17751 1.72895C10.1851 1.84012 11.7759 3.50767 11.8138 5.50873C11.8517 7.43568 10.3366 9.10322 8.44264 9.2885C7.95023 9.36262 7.19267 9.36262 6.24571 9.36262ZM4.84421 8.62149C4.91997 8.62149 4.95786 8.62149 4.99574 8.62149C6.58662 8.65855 7.68508 8.62149 8.32901 8.58443C9.84414 8.4362 11.0563 7.10216 11.0184 5.54578C11.0184 3.91529 9.73052 2.58125 8.10175 2.50714C6.88965 2.43303 5.67755 2.47008 4.38969 2.47008C3.93515 2.47008 3.4806 2.47008 3.02606 2.47008V8.62149C3.36697 8.62149 3.82152 8.62149 4.2003 8.62149C4.46545 8.62149 4.6927 8.62149 4.84421 8.62149Z" fill="#1C62CD"/>
</svg>
